<mxfile host="Drawpyo" modified="2025-05-08T17:54:18" agent="Python 3.13, Drawpyo 0.01" version="21.6.5" type="device">
  <diagram name="Page-1" id="4378667600">
    <mxGraphModel dx="2037" dy="830" grid="1" gridSize="10" guides="1" toolTips="1" connect="1" arrows="1" fold="1" page="1" pageScale="1" pageWidth="850" pageHeight="1100" math="0" shadow="0">
      <root>
        <mxCell id="0" />
        <mxCell id="1" parent="0" />
        <mxCell id="4378668608" value="Fido (Dog)" style="whiteSpace=wrap;rounded=0;fillColor=#d5e8d4;strokeColor=#82b366;dashed=0;" vertex="1" parent="1">
  <mxGeometry x="162.5" y="150.0" width="120" height="80" as="geometry" />
</mxCell>
        <mxCell id="4379005072" value="Whiskers (Cat)" style="whiteSpace=wrap;rounded=0;fillColor=#d5e8d4;strokeColor=#82b366;dashed=0;" vertex="1" parent="1">
  <mxGeometry x="297.5" y="150.0" width="120" height="80" as="geometry" />
</mxCell>
        <mxCell id="4379006032" value="Mittens (Cat)" style="whiteSpace=wrap;rounded=0;fillColor=#d5e8d4;strokeColor=#82b366;dashed=0;" vertex="1" parent="1">
  <mxGeometry x="432.5" y="150.0" width="120" height="80" as="geometry" />
</mxCell>
        <mxCell id="4379006992" value="John (Owner)" style="whiteSpace=wrap;rounded=0;fillColor=#dae8fc;strokeColor=#6c8ebf;dashed=0;" vertex="1" parent="1">
  <mxGeometry x="162.5" y="10.0" width="120" height="80" as="geometry" />
</mxCell>
        <mxCell id="4379007312" value="Sarah (Owner)" style="whiteSpace=wrap;rounded=0;fillColor=#dae8fc;strokeColor=#6c8ebf;dashed=0;" vertex="1" parent="1">
  <mxGeometry x="365.0" y="10.0" width="120" height="80" as="geometry" />
</mxCell>
        <mxCell id="4379007632" value="Dr. Smith (Vet)" style="whiteSpace=wrap;rounded=0;fillColor=#fff2cc;strokeColor=#d6b656;dashed=0;" vertex="1" parent="1">
  <mxGeometry x="567.5" y="150.0" width="120" height="80" as="geometry" />
</mxCell>
        <mxCell id="4379007952" value="Pet Palace (Shop)" style="whiteSpace=wrap;rounded=0;fillColor=#f8cecc;strokeColor=#b85450;dashed=0;" vertex="1" parent="1">
  <mxGeometry x="567.5" y="10.0" width="120" height="80" as="geometry" />
</mxCell>
        <mxCell id="4378669616" style="edgeStyle=orthogonalEdgeStyle;orthogonalLoop=1;rounded=0;jettySize=auto;endArrow=open;" edge="1" parent="1" source="4379007632" target="4378668608">
  <mxGeometry relative="1" as="geometry" />
</mxCell>
        <mxCell id="4379008272" style="edgeStyle=orthogonalEdgeStyle;orthogonalLoop=1;rounded=0;jettySize=auto;endArrow=open;" edge="1" parent="1" source="4379007632" target="4379005072">
  <mxGeometry relative="1" as="geometry" />
</mxCell>
        <mxCell id="4379009232" style="edgeStyle=orthogonalEdgeStyle;orthogonalLoop=1;rounded=0;jettySize=auto;entryX=0.5;entryY=0;exitX=0.5;exitY=1;" edge="1" parent="1" source="4379006992" target="4378668608">
  <mxGeometry relative="1" as="geometry" />
</mxCell>
        <mxCell id="4379009872" style="edgeStyle=orthogonalEdgeStyle;orthogonalLoop=1;rounded=0;jettySize=auto;entryX=0.5;entryY=0;exitX=0.5;exitY=1;" edge="1" parent="1" source="4379007312" target="4379005072">
  <mxGeometry relative="1" as="geometry" />
</mxCell>
        <mxCell id="4379010192" style="edgeStyle=orthogonalEdgeStyle;orthogonalLoop=1;rounded=0;jettySize=auto;entryX=0.5;entryY=0;exitX=0.5;exitY=1;" edge="1" parent="1" source="4379007312" target="4379006032">
  <mxGeometry relative="1" as="geometry" />
</mxCell>
        <mxCell id="4379010512" style="edgeStyle=orthogonalEdgeStyle;orthogonalLoop=1;rounded=0;jettySize=auto;entryX=0.5;entryY=0;exitX=0.5;exitY=1;" edge="1" parent="1" source="4379007952" target="4379007632">
  <mxGeometry relative="1" as="geometry" />
</mxCell>
      </root>
    </mxGraphModel>
  </diagram>
</mxfile>